<svg width="60" height="60" viewBox="0 0 60 60" fill="none" xmlns="http://www.w3.org/2000/svg">
<path d="M59.4917 51.3558V55.4235C59.4917 57.6608 57.6612 59.4913 55.424 59.4913H54.4071C53.2884 59.4913 52.3731 58.4744 51.3562 57.4573C50.3393 58.4742 49.4241 59.4913 48.3054 59.4913H46.2714C45.1528 59.4913 44.2375 58.4744 43.2206 57.4573C42.2037 58.4742 41.2884 59.4913 40.1697 59.4913H39.1528C36.9156 59.4913 35.0851 57.6608 35.0851 55.4235V51.3558C35.0851 49.3218 36.102 49.3218 36.102 47.288H58.4748C58.4748 49.3219 59.4917 49.3219 59.4917 51.3558ZM59.4917 18.8135V26.9491C59.4917 28.9831 58.4748 28.9831 58.4748 31.0169H36.1019C36.1019 28.9829 35.085 28.9829 35.085 26.9491V18.8135C35.085 15.7626 37.1189 13.7287 39.1527 12.7118L43.2206 10.6779V6.61011H45.2545H49.3223H51.3562V10.6779L55.424 12.7118C57.4578 13.7287 59.4917 15.7626 59.4917 18.8135Z" fill="#ECF4F7"/>
<path d="M36.1016 47.2881H58.4744V31.017H36.1016V47.2881ZM49.322 6.61024H45.2542H43.2203H42.2034C41.5932 6.61024 41.1865 6.10172 41.1865 5.59333V1.52545C41.1865 1.01694 41.5932 0.508545 42.2034 0.508545H52.3728C52.983 0.508545 53.3897 1.01706 53.3897 1.52545V5.59321C53.3897 6.10172 52.983 6.61012 52.3728 6.61012H51.3559H49.322V6.61024Z" fill="#50DD8E"/>
<path d="M6.10224 18.2036L6.61075 18.8137L8.64457 16.7798L10.17 18.3052L10.2716 18.2036C10.6784 16.2714 10.5767 13.729 10.5767 13.729V13.6273C10.5767 12.712 10.0682 5.39002 2.44111 2.5426C4.47516 5.08493 5.49207 7.93235 6.00059 10.0679C5.49207 7.93235 4.47516 5.08493 2.44123 2.54248C2.44123 2.54248 2.84797 5.69498 2.84797 9.05091C2.84797 10.678 2.74631 12.4068 2.44123 13.7288C2.44123 13.7288 2.03449 15.4577 1.11923 17.2882L1.01758 17.3898L2.44135 18.8136L4.47516 16.7798L6.10224 18.2036Z" fill="#FFE079"/>
<path d="M33.0511 16.7798L35.085 18.8137V26.9493C35.085 28.9833 36.1019 28.9833 36.1019 31.0171V47.2882H0.508789V16.7798L1.11896 17.39L2.54273 18.8137L4.57654 16.7798L6.10197 18.3052L6.61048 18.8137L8.6443 16.7798L10.1697 18.3052L10.6782 18.8137L12.7122 16.7798L13.7291 17.7967L14.746 18.8136L16.7799 16.7798L18.8139 18.8137L20.8478 16.7798L22.8816 18.8137L24.9156 16.7798L26.9495 18.8137L28.9833 16.7798L31.0172 18.8137L33.0511 16.7798ZM39.1528 59.4916H4.57654C2.3393 59.4916 0.508789 57.6611 0.508789 55.4239V47.2882H36.102C36.102 49.3222 35.0851 49.3222 35.0851 51.356V55.4237C35.085 57.6611 36.9155 59.4916 39.1528 59.4916Z" fill="#FFD0A1"/>
<path d="M14.7454 18.8137L13.7285 17.7968L14.7454 16.7799V5.59332C14.7454 5.08481 15.2539 4.57642 15.7623 4.57642H28.9828V16.7798L26.9488 18.8137L24.915 16.7798L22.8811 18.8137L20.8471 16.7798L18.8132 18.8137L16.7794 16.7798L14.7454 18.8137ZM33.0505 5.59332V16.7798L31.0166 18.8137L28.9828 16.7798V4.57642H32.0336C32.6438 4.57642 33.0505 5.08493 33.0505 5.59332Z" fill="#FF7474"/>
</svg>
