<svg width="60" height="60" viewBox="0 0 60 60" fill="none" xmlns="http://www.w3.org/2000/svg">
<path d="M40.1017 59.4417H26.9037V51.3199C24.8732 52.335 22.8428 52.335 22.8428 52.335C22.8428 52.335 15.7362 52.335 12.6906 45.2285C10.6601 40.4569 0.507812 44.2133 0.507812 44.2133V16.8021H26.9038H41.1169V28.9849H37.056L37.7667 37.1067H37.6652L39.0865 57.4113C39.0865 58.2236 39.4926 58.8327 40.2033 59.2388L40.1017 59.4417ZM26.9037 16.8021H0.507812L8.62968 4.61938H32.9952L41.117 15.7869V16.8021H26.9037Z" fill="#ECF4F7"/>
<path d="M8.62988 4.61934H32.9954V0.55835H8.62988V4.61934Z" fill="#AAB1BA"/>
<path d="M59.3906 28.9849L58.7815 37.1066H58.3755H37.7663L37.0557 28.9849H41.1165H59.3906Z" fill="#ECF4F7"/>
<path d="M58.7819 37.1067L57.3605 57.4113C57.3605 58.5281 56.4468 59.4418 55.33 59.4418H41.1169C40.8123 59.4418 40.4063 59.3403 40.2032 59.2387C39.5941 58.9341 39.0864 58.2235 39.0864 57.4113L37.665 37.1067H37.7665H58.3757H58.7819Z" fill="#80D6FA"/>
<path d="M26.9037 51.3198V59.4417H0.507812V44.2133C0.507812 44.2133 10.6601 40.457 12.6906 45.2285C15.7362 52.335 22.8428 52.335 22.8428 52.335C22.8428 52.335 24.8733 52.335 26.9037 51.3198Z" fill="#80D6FA"/>
</svg>
